<?xml version="1.0" standalone="no"?>
<!DOCTYPE svg PUBLIC "-//W3C//DTD SVG 20010904//EN"
 "http://www.w3.org/TR/2001/REC-SVG-20010904/DTD/svg10.dtd">
<svg version="1.0" xmlns="http://www.w3.org/2000/svg"
 width="309.000000pt" height="430.000000pt" viewBox="0 0 309.000000 430.000000"
 preserveAspectRatio="xMidYMid meet">

<g transform="translate(0.000000,430.000000) scale(0.100000,-0.100000)"
fill="#000000" stroke="none">
<path d="M1090 3987 c-14 -7 -29 -26 -35 -42 -15 -46 -23 -53 -73 -76 -169
-76 -371 -200 -436 -268 -39 -41 -45 -82 -46 -322 0 -294 14 -413 86 -719 9
-36 20 -83 24 -105 14 -65 29 -128 39 -165 73 -265 96 -336 109 -333 5 1 67
42 139 91 71 49 140 95 155 103 14 8 73 47 131 86 194 133 311 181 718 294
119 33 277 73 350 88 l134 28 -2 28 c-2 28 -92 212 -151 311 -16 27 -73 121
-125 209 -153 257 -372 554 -524 713 -70 73 -98 81 -228 62 -119 -17 -151 -17
-172 2 -26 23 -65 29 -93 15z"/>
<path d="M1760 2453 c-36 -6 -204 -59 -248 -78 -106 -47 -382 -188 -382 -196
0 -5 -6 -9 -13 -9 -7 0 -28 -13 -47 -30 -19 -16 -40 -29 -47 -30 -6 0 -13 -4
-15 -8 -1 -4 -30 -28 -63 -54 -96 -73 -172 -159 -181 -203 -10 -56 1 -160 30
-268 15 -57 26 -125 26 -164 1 -121 31 -214 84 -261 30 -26 45 -32 85 -32 50
0 123 21 155 45 19 15 19 16 -6 42 -57 61 -89 173 -92 313 -1 117 15 178 63
230 50 55 112 71 171 45 45 -20 117 -95 126 -130 3 -11 -6 -55 -19 -96 -24
-73 -34 -109 -58 -219 -7 -30 -13 -113 -13 -185 -1 -116 2 -135 22 -172 70
-132 269 -232 542 -274 163 -24 319 -86 423 -168 35 -28 69 -51 75 -51 21 0
109 90 134 137 53 100 70 174 66 291 -2 89 -7 115 -27 155 -25 49 -55 62 -66
30 -3 -10 -12 -27 -20 -37 -14 -18 -15 -18 -32 3 l-18 23 -19 -44 c-35 -81
-93 -126 -190 -148 -67 -15 -210 22 -341 88 -38 19 -106 53 -150 74 -44 21
-105 51 -135 66 -92 46 -127 121 -116 256 7 91 28 136 100 206 44 42 58 70 36
70 -5 0 -18 17 -29 38 -10 20 -31 48 -45 61 -18 17 -26 35 -26 58 0 19 -4 42
-9 52 -17 30 -1 57 53 95 29 20 63 48 75 62 40 46 91 115 91 124 0 4 -17 2
-37 -6 -73 -26 -79 -18 -29 37 25 28 43 55 40 60 -7 13 -58 11 -71 -2 -6 -6
-17 -9 -23 -7 -15 5 95 112 153 150 23 15 53 36 67 47 l25 21 -25 -2 c-14 0
-36 -3 -50 -5z"/>
<path d="M2300 2163 c-130 -20 -216 -52 -303 -111 -54 -38 -55 -62 -1 -30 49
29 52 17 4 -21 -43 -34 -46 -64 -4 -36 46 30 204 64 384 84 77 8 98 14 113 32
22 27 21 31 -4 63 -19 24 -26 26 -92 25 -40 -1 -83 -3 -97 -6z"/>
<path d="M2295 1525 c-44 -25 -123 -77 -175 -115 -138 -102 -208 -134 -295
-134 -70 0 -101 10 -138 45 -28 25 -39 14 -24 -23 61 -149 361 -137 697 28 58
28 120 55 138 59 18 4 40 18 49 31 21 32 12 98 -18 130 -19 21 -32 24 -88 24
-60 0 -74 -4 -146 -45z"/>
<path d="M828 913 c-48 -30 -151 -270 -124 -292 6 -5 48 -18 93 -30 45 -11
135 -35 200 -52 65 -17 134 -35 153 -39 19 -5 114 -29 210 -54 471 -124 696
-176 763 -176 l37 0 0 115 c0 84 -3 117 -12 119 -7 3 -69 19 -138 36 -69 17
-136 35 -150 40 -14 4 -45 13 -70 20 -91 25 -106 30 -165 48 -33 11 -80 25
-105 32 -75 21 -259 85 -356 124 -50 20 -94 36 -97 36 -4 0 -44 18 -89 39
-108 51 -118 53 -150 34z"/>
</g>
</svg>
